<svg xmlns="http://www.w3.org/2000/svg" xmlns:xlink="http://www.w3.org/1999/xlink" width="300" zoomAndPan="magnify" viewBox="0 0 224.87999 74.999997" height="100" preserveAspectRatio="xMidYMid meet" version="1.0"><defs><g/><clipPath id="001d3146db"><path d="M 0 3 L 224.761719 3 L 224.761719 60 L 0 60 Z M 0 3 " clip-rule="nonzero"/></clipPath></defs><g clip-path="url(#001d3146db)"><path stroke-linecap="butt" transform="matrix(3.907344, 0, 0, 3.907344, -0.598256, -13.295476)" fill="none" stroke-linejoin="miter" d="M 0.933892 17.9996 L 2.79737 17.9996 L 2.79737 12.401168 L 8.395802 12.401168 L 8.395802 10.53769 L 2.79737 10.53769 L 2.79737 6.801737 L 10.264278 6.801737 L 10.264278 4.939258 L 0.933892 4.939258 Z M 19.589666 16.132123 L 13.991235 16.132123 L 13.991235 17.9996 L 19.589666 17.9996 Z M 12.127757 16.132123 L 13.991235 16.132123 L 13.991235 10.53769 L 12.127757 10.53769 Z M 13.991235 10.53769 L 19.589666 10.53769 L 19.589666 8.670213 L 13.991235 8.670213 Z M 19.589666 16.132123 L 21.458143 16.132123 L 21.458143 10.53769 L 19.589666 10.53769 Z M 30.783531 10.53769 L 28.920053 10.53769 L 28.920053 12.401168 L 30.783531 12.401168 Z M 23.321621 17.9996 L 25.185099 17.9996 L 25.185099 16.132123 L 23.321621 16.132123 Z M 23.321621 10.53769 L 25.185099 10.53769 L 25.185099 8.670213 L 23.321621 8.670213 Z M 25.185099 16.132123 L 27.052576 16.132123 L 27.052576 14.268645 L 25.185099 14.268645 Z M 25.185099 12.401168 L 27.052576 12.401168 L 27.052576 10.53769 L 25.185099 10.53769 Z M 27.052576 14.268645 L 28.920053 14.268645 L 28.920053 12.401168 L 27.052576 12.401168 Z M 28.920053 16.132123 L 30.783531 16.132123 L 30.783531 14.268645 L 28.920053 14.268645 Z M 30.783531 17.9996 L 32.651008 17.9996 L 32.651008 16.132123 L 30.783531 16.132123 Z M 30.783531 10.53769 L 32.651008 10.53769 L 32.651008 8.670213 L 30.783531 8.670213 Z M 34.515486 17.9996 L 36.377964 17.9996 L 36.377964 8.670213 L 34.515486 8.670213 Z M 34.515486 6.801737 L 36.377964 6.801737 L 36.377964 4.939258 L 34.515486 4.939258 Z M 38.246441 16.132123 L 40.109919 16.132123 L 40.109919 14.268645 L 45.708351 14.268645 L 45.708351 12.401168 L 40.109919 12.401168 L 40.109919 10.53769 L 38.246441 10.53769 Z M 40.109919 17.9996 L 45.708351 17.9996 L 45.708351 16.132123 L 40.109919 16.132123 Z M 40.109919 10.53769 L 45.708351 10.53769 L 45.708351 8.670213 L 40.109919 8.670213 Z M 45.708351 12.401168 L 47.576827 12.401168 L 47.576827 10.53769 L 45.708351 10.53769 Z M 51.303784 10.53769 L 49.440306 10.53769 L 49.440306 12.401168 L 51.303784 12.401168 Z M 49.440306 17.9996 L 55.038737 17.9996 L 55.038737 16.132123 L 49.440306 16.132123 Z M 51.303784 14.268645 L 55.038737 14.268645 L 55.038737 12.401168 L 51.303784 12.401168 Z M 51.303784 10.53769 L 56.902215 10.53769 L 56.902215 8.670213 L 51.303784 8.670213 Z M 55.038737 16.132123 L 56.902215 16.132123 L 56.902215 14.268645 L 55.038737 14.268645 Z M 55.038737 16.132123 " stroke="#ff8200" stroke-width="1.166669" stroke-opacity="1" stroke-miterlimit="4"/></g><g fill="#ffffff" fill-opacity="1"><g transform="translate(-0.598256, 57.036718)"><g><path d="M 3.644531 0 L 10.9375 0 L 10.9375 -21.875 L 32.808594 -21.875 L 32.808594 -29.164062 L 10.9375 -29.164062 L 10.9375 -43.746094 L 40.101562 -43.746094 L 40.101562 -51.039062 L 3.644531 -51.039062 Z M 3.644531 0 "/></g></g></g><g fill="#ffffff" fill-opacity="1"><g transform="translate(43.139601, 57.036718)"><g><path d="M 32.808594 -7.292969 L 10.9375 -7.292969 L 10.9375 0 L 32.808594 0 Z M 3.644531 -7.292969 L 10.9375 -7.292969 L 10.9375 -29.164062 L 3.644531 -29.164062 Z M 10.9375 -29.164062 L 32.808594 -29.164062 L 32.808594 -36.457031 L 10.9375 -36.457031 Z M 32.808594 -7.292969 L 40.101562 -7.292969 L 40.101562 -29.164062 L 32.808594 -29.164062 Z M 32.808594 -7.292969 "/></g></g></g><g fill="#ffffff" fill-opacity="1"><g transform="translate(86.877458, 57.036718)"><g><path d="M 32.808594 -29.164062 L 25.519531 -29.164062 L 25.519531 -21.875 L 32.808594 -21.875 Z M 3.644531 0 L 10.9375 0 L 10.9375 -7.292969 L 3.644531 -7.292969 Z M 3.644531 -29.164062 L 10.9375 -29.164062 L 10.9375 -36.457031 L 3.644531 -36.457031 Z M 10.9375 -7.292969 L 18.226562 -7.292969 L 18.226562 -14.582031 L 10.9375 -14.582031 Z M 10.9375 -21.875 L 18.226562 -21.875 L 18.226562 -29.164062 L 10.9375 -29.164062 Z M 18.226562 -14.582031 L 25.519531 -14.582031 L 25.519531 -21.875 L 18.226562 -21.875 Z M 25.519531 -7.292969 L 32.808594 -7.292969 L 32.808594 -14.582031 L 25.519531 -14.582031 Z M 32.808594 0 L 40.101562 0 L 40.101562 -7.292969 L 32.808594 -7.292969 Z M 32.808594 -29.164062 L 40.101562 -29.164062 L 40.101562 -36.457031 L 32.808594 -36.457031 Z M 32.808594 -29.164062 "/></g></g></g><g fill="#ffffff" fill-opacity="1"><g transform="translate(130.615315, 57.036718)"><g><path d="M 3.644531 0 L 10.9375 0 L 10.9375 -36.457031 L 3.644531 -36.457031 Z M 3.644531 -43.746094 L 10.9375 -43.746094 L 10.9375 -51.039062 L 3.644531 -51.039062 Z M 3.644531 -43.746094 "/></g></g></g><g fill="#ffffff" fill-opacity="1"><g transform="translate(145.194581, 57.036718)"><g><path d="M 3.644531 -7.292969 L 10.9375 -7.292969 L 10.9375 -14.582031 L 32.808594 -14.582031 L 32.808594 -21.875 L 10.9375 -21.875 L 10.9375 -29.164062 L 3.644531 -29.164062 Z M 10.9375 0 L 32.808594 0 L 32.808594 -7.292969 L 10.9375 -7.292969 Z M 10.9375 -29.164062 L 32.808594 -29.164062 L 32.808594 -36.457031 L 10.9375 -36.457031 Z M 32.808594 -21.875 L 40.101562 -21.875 L 40.101562 -29.164062 L 32.808594 -29.164062 Z M 32.808594 -21.875 "/></g></g></g><g fill="#ffffff" fill-opacity="1"><g transform="translate(188.932438, 57.036718)"><g><path d="M 10.9375 -29.164062 L 3.644531 -29.164062 L 3.644531 -21.875 L 10.9375 -21.875 Z M 3.644531 0 L 25.519531 0 L 25.519531 -7.292969 L 3.644531 -7.292969 Z M 10.9375 -14.582031 L 25.519531 -14.582031 L 25.519531 -21.875 L 10.9375 -21.875 Z M 10.9375 -29.164062 L 32.808594 -29.164062 L 32.808594 -36.457031 L 10.9375 -36.457031 Z M 25.519531 -7.292969 L 32.808594 -7.292969 L 32.808594 -14.582031 L 25.519531 -14.582031 Z M 25.519531 -7.292969 "/></g></g></g></svg>